<svg xmlns="http://www.w3.org/2000/svg" fill-rule="evenodd" stroke-miterlimit="1.414" viewBox="0 0 3508 2481" clip-rule="evenodd" stroke-linejoin="round"><circle cx="1454.89" cy="1482.45" r="420.139" fill="#E96117" transform="translate(529.81 -461.18) scale(.8414)"/><path fill="#fff" d="M1776.416 571.452c19.032-14.946 40.342-18.905 63.45-14.085-.49 4.944 3.335 8.125 6.935 10.167 11.19 6.35 16.82 15.9 19.2 28.167.48 2.44 3.21 4.68 5.34 6.49 1.95 1.64 4.54 2.5 6.76 3.85 3.92 2.39 3.37 5.88.2 7.59-6.05 3.29-3.89 8.96-4.02 13.27-.13 4.5 2.81 9.04 3.99 13.65.57 2.2.68 4.77.13 6.96-1.49 5.94-1.03 7.02 4.74 8.15 14.53 2.84 28.61 7.49 40.09 16.77 10.31 8.33 16.03 20.06 17.31 33.64.54 5.76 1.14 11.62 2.73 17.15 4.96 17.2 10.55 34.22 15.61 51.38 3.81 12.93 7.06 26.03 10.79 38.97 3.38 11.72 2.85 23.36.51 35.13-2.11 10.64-4.27 21.29-5.69 32.03-.81 6.13-.02 12.46-.31 18.68-.6 12.73-3.63 24.48-11.83 34.91-3.39 4.32-4.84 10.5-6.19 16.07-7.69 31.89-21.29 61.09-39.85 87.99-12.14 17.61-24.28 35.25-37.34 52.15-5.92 7.66-14.07 13.87-25.02 12.48-3.41-.43-7.13-1.52-9.89-3.46-13.02-9.2-27.08-15.55-42.66-19.38-11.01-2.71-21.3-8.19-32.17-11.63-20.85-6.6-41.67-13.58-62.94-18.49-10.715-2.48-22.445-1.52-33.626-.78-13.68.9-27.066 4.1-39.69 9.72-5.616 2.5-10.91 5.73-16.505 8.27-10.004 4.57-20.06 9.05-30.24 13.18-3.546 1.44-6.16-.16-6.47-4.41-.08-1.08-.15-2.89-.71-3.11-5.9-2.27-1.445-8.21-4.225-11.48 1.59-1.23 3.063-2.71 4.824-3.63 1.582-.82 3.49-1.02 6.36-1.8-3.348-1.47-5.27-2.32-7.19-3.16 1.72-3.61 2.97-7.53 5.23-10.76 9.71-13.79 25.162-18.08 39.86-23.69 5.18-1.97 10.08-4.79 14.823-7.68 6.5-3.95 12.53-9.16 20.92-7.15 2.63.63 5.4 1.76 7.47 3.45 10.12 8.19 21.19 11.298 34.07 8.07 7.557-1.895 15.337-2.885 23.01-4.286l.12-2.04c-18.284-6.715-35.08-17.31-55-19.87-5.14-.66-10.04-3.12-15.18-3.89-13.303-1.995-24.83-8.914-37.4-12.913-1.233-.4-2.61-.48-3.78-1.006-1.7-.77-3.29-1.81-4.923-2.73 1.23-1.49 2.18-3.66 3.75-4.32 4.216-1.76 8.7-2.87 13.08-4.21 3.12-.96 6.22-2.01 9.39-2.78 7.41-1.84 14.794-4.64 22.3-5.04 13.076-.7 25.435-3.32 37.596-8.082 12.12-4.742 17.48-2.08 22.15 10.06 4.66 12.12 12.628 20.27 25.487 23.83 17.47 4.82 34.91 9.86 52.09 15.61 10.17 3.406 19.83 8.36 28.72 12.198 8.15-19.64 16.78-40.23 25.22-60.892 2.04-5 4.15-10.15 4.98-15.43.64-4.03-.07-8.56-1.25-12.55-5.97-20.24-5.73-40.05 4.3-58.91 5.065-9.53 11.89-17.78 22.683-21.7 6.15-2.23 4.757-8.41 5.837-12.95 1.5-6.27-5.42-24.7-9.722-29.08-1.27 1.46-2.62 2.99-3.96 4.52-.465-.31-.93-5.39-1.4-5.7v-2.18l-2.485-.77c1.09-2.12-2.11-5.57-.87-8l-3.57-2.38c4.47-4.79-1.17-10.8-3.53-14.61-7-11.3-13.66-23.1-27.06-28.38-1.01-.4-2.07-1.112-2.71-1.98-6.33-8.5-16.3-12.25-24.12-18.77-5.74-4.78-11.43-9.84-16.163-15.58-13.01-15.76-28.28-28.44-46.77-37.28-18.75-8.95-35.312-21.335-52.3-33.14-8.043-5.59-17.29-9.89-26.56-13.12-5.57-1.94-12.263-.99-18.45-.81-6.29.18-10.28-1.62-11.62-8.47-.92-4.652-3.43-8.972-4.85-13.56-3.667-11.85 2.813-15.33 11.66-17.73 11.73-3.18 17.93 4.07 23.86 10.887 10.01 11.513 22.614 18.3 36.51 23.32 16.03 5.79 32.23 11.12 48.16 17.162 6.44 2.44 12.36 6.236 18.43 9.36.104-6.557-4.69-11.816-12.58-13.56-9.01-1.99-10.407-2.9-10.31-11.456.05-4.4-1.717-6.913-4.66-8.955-4.93-3.41-9.934-6.84-15.28-9.51-14.015-7.01-27.62-14.54-38.603-26.017-15.39-16.08-34.74-26.9-52.73-39.52-4.24-2.98-8.95-5.49-13.78-7.337-2.36-.893-5.96-.6-8.18.63-4.894 2.73-9.31 6.33-13.838 9.688-3.11 2.31-6.09 2.72-9.16.01-3.49-3.05-7.03-6.04-10.5-9.12-6.85-6.062-6.08-11.62 1.35-15.445-.79-2.62-2.66-6.83-2.05-7.24 2.76-1.8 6.41-3.78 9.41-3.36 5.04.7 9.423.313 14.24-1.305 3.1-1.04 7.27-.675 10.394.53 7.67 2.947 14.896 7.006 22.495 10.14 12.104 5 24.23 10.003 36.59 14.306 18.727 6.52 35.926 15.87 53.305 25.305 16.12 8.755 27.22 23.43 42.888 32.3 1.97 1.12 5.32 3.174 6.04 2.54 3.15-2.77 6.37-6.05 7.87-9.828"/></svg>