<svg xmlns="http://www.w3.org/2000/svg" fill-rule="evenodd" stroke-miterlimit="1.4142" viewBox="0 0 3508 2481" clip-rule="evenodd" stroke-linejoin="round"><path fill="#E96117" d="M1753.94 432.631c195.1 0 353.5 158.398 353.5 353.5s-158.4 353.499-353.5 353.499-353.5-158.397-353.5-353.499c0-195.102 158.4-353.5 353.5-353.5zm22.47 138.821c19.03-14.946 40.35-18.905 63.45-14.085-.48 4.944 3.34 8.125 6.94 10.166 11.19 6.349 16.82 15.901 19.2 28.168.47 2.436 3.2 4.68 5.33 6.486 1.94 1.642 4.54 2.497 6.76 3.847 3.91 2.391 3.37 5.873.19 7.589-6.05 3.285-3.89 8.96-4.02 13.263-.13 4.501 2.81 9.034 3.99 13.653.56 2.199.67 4.77.12 6.958-1.49 5.94-1.03 7.02 4.74 8.151 14.53 2.84 28.61 7.486 40.09 16.768 10.31 8.325 16.03 20.059 17.31 33.644.54 5.754 1.14 11.621 2.74 17.15 4.95 17.196 10.54 34.212 15.6 51.38 3.81 12.926 7.05 26.022 10.79 38.97 3.38 11.712 2.84 23.356.5 35.129-2.11 10.637-4.26 21.291-5.69 32.029-.82 6.132-.02 12.46-.31 18.681-.6 12.73-3.63 24.475-11.84 34.91-3.39 4.32-4.84 10.496-6.18 16.065-7.7 31.883-21.3 61.086-39.85 87.986-12.14 17.6-24.28 35.24-37.35 52.15-5.92 7.66-14.07 13.87-25.03 12.48-3.41-.43-7.13-1.52-9.89-3.47-13.02-9.19-27.08-15.55-42.66-19.38-11.01-2.72-21.3-8.19-32.17-11.63-20.85-6.6-41.67-13.58-62.94-18.5-10.72-2.48-22.45-1.52-33.63-.79-13.68.9-27.06 4.1-39.68 9.72-5.62 2.51-10.91 5.73-16.51 8.28-10 4.57-20.06 9.04-30.24 13.18-3.55 1.43-6.16-.17-6.47-4.41-.08-1.09-.15-2.89-.71-3.11-5.9-2.27-1.44-8.21-4.22-11.49 1.59-1.24 3.06-2.72 4.82-3.63 1.58-.83 3.49-1.03 6.36-1.8-3.35-1.48-5.27-2.32-7.19-3.16 1.72-3.61 2.97-7.54 5.23-10.76 9.71-13.8 25.16-18.08 39.86-23.7 5.18-1.97 10.08-4.79 14.82-7.68 6.51-3.95 12.54-9.16 20.92-7.15 2.64.63 5.4 1.76 7.48 3.45 10.12 8.19 21.19 11.29 34.08 8.06 7.55-1.89 15.33-2.88 23.01-4.28l.12-2.04c-18.29-6.72-35.08-17.314-55-19.873-5.15-.658-10.05-3.122-15.18-3.887-13.31-1.997-24.83-8.916-37.4-12.915-1.24-.4-2.61-.473-3.78-1.002-1.71-.765-3.29-1.805-4.93-2.728 1.23-1.485 2.18-3.662 3.75-4.32 4.21-1.755 8.7-2.869 13.08-4.213 3.12-.956 6.22-2.003 9.39-2.779 7.41-1.834 14.79-4.635 22.3-5.034 13.07-.698 25.43-3.319 37.59-8.083 12.12-4.748 17.48-2.082 22.15 10.057 4.66 12.122 12.62 20.273 25.48 23.828 17.47 4.821 34.91 9.861 52.1 15.61 10.17 3.403 19.82 8.359 28.72 12.199 8.15-19.641 16.78-40.235 25.22-60.896 2.04-5.006 4.15-10.153 4.98-15.429.64-4.034-.07-8.562-1.25-12.55-5.97-20.239-5.73-40.05 4.3-58.911 5.07-9.529 11.89-17.787 22.68-21.702 6.15-2.227 4.76-8.415 5.84-12.949 1.5-6.277-5.43-24.705-9.73-29.082-1.27 1.457-2.62 2.987-3.96 4.523-.47-.315-.93-5.389-1.4-5.698v-2.177l-2.49-.771c1.09-2.12-2.11-5.569-.87-7.999-1.58-1.052-1.24-.827-3.58-2.379 4.47-4.793-1.17-10.806-3.53-14.614-7-11.295-13.66-23.097-27.06-28.379-1.01-.399-2.07-1.113-2.71-1.98-6.33-8.499-16.3-12.251-24.11-18.765-5.75-4.781-11.43-9.838-16.17-15.576-13.01-15.761-28.28-28.446-46.77-37.283-18.75-8.949-35.32-21.336-52.3-33.137-8.05-5.586-17.29-9.889-26.56-13.118-5.58-1.94-12.27-.99-18.46-.81-6.28.18-10.28-1.62-11.62-8.466-.92-4.657-3.43-8.977-4.85-13.562-3.66-11.857 2.82-15.334 11.67-17.736 11.73-3.178 17.93 4.067 23.86 10.885 10 11.515 22.61 18.298 36.5 23.316 16.04 5.794 32.24 11.126 48.17 17.168 6.44 2.441 12.36 6.232 18.43 9.354.11-6.553-4.69-11.812-12.58-13.556-9.01-1.992-10.4-2.903-10.31-11.459.05-4.398-1.71-6.913-4.66-8.955-4.92-3.414-9.93-6.84-15.27-9.512-14.02-7.009-27.62-14.541-38.61-26.016-15.4-16.076-34.74-26.899-52.73-39.522-4.24-2.975-8.95-5.49-13.78-7.335-2.36-.894-5.96-.602-8.18.63-4.9 2.729-9.31 6.329-13.84 9.687-3.11 2.312-6.09 2.722-9.16.017-3.49-3.049-7.03-6.042-10.5-9.113-6.85-6.063-6.08-11.621 1.35-15.446-.79-2.621-2.66-6.829-2.05-7.234 2.76-1.805 6.41-3.78 9.41-3.364 5.04.704 9.42.315 14.24-1.302 3.09-1.04 7.27-.675 10.39.529 7.67 2.948 14.9 7.007 22.5 10.142 12.1 5.001 24.23 10.001 36.59 14.305 18.72 6.519 35.92 15.874 53.3 25.307 16.12 8.758 27.22 23.428 42.89 32.299 1.97 1.119 5.32 3.178 6.04 2.543 3.15-2.768 6.37-6.053 7.87-9.827l6.72 1.797z"/></svg>